<?xml version="1.0" standalone="no"?>
<!DOCTYPE svg PUBLIC "-//W3C//DTD SVG 20010904//EN"
 "http://www.w3.org/TR/2001/REC-SVG-20010904/DTD/svg10.dtd">
<svg version="1.0" xmlns="http://www.w3.org/2000/svg"
 width="2250.000000pt" height="2250.000000pt" viewBox="0 0 2250.000000 2250.000000"
 preserveAspectRatio="xMidYMid meet">
<metadata>
Created by potrace 1.14, written by Peter Selinger 2001-2017
</metadata>
<g transform="translate(0.000000,2250.000000) scale(0.100000,-0.100000)"
fill="#000000" stroke="none">
<path d="M11100 21169 c-71 -12 -84 -16 -139 -40 -47 -20 -60 -21 -159 -14
-101 7 -298 7 -407 0 -27 -2 -93 -4 -145 -5 -52 -1 -100 -6 -106 -11 -23 -19
-88 -17 -124 2 -19 11 -47 19 -63 19 -38 0 -127 -48 -139 -76 -12 -26 -148
-100 -199 -109 -295 -51 -351 -65 -471 -119 -79 -35 -194 -71 -313 -96 -55
-11 -127 -28 -159 -36 -32 -9 -71 -18 -85 -20 -14 -3 -53 -13 -86 -23 -33 -10
-85 -21 -115 -25 -56 -6 -179 -46 -330 -108 -47 -20 -103 -41 -125 -48 -22 -7
-67 -24 -100 -37 -75 -32 -126 -32 -245 0 -52 14 -108 27 -125 30 -16 3 -56
12 -89 22 -32 9 -81 17 -110 18 -105 1 -287 -15 -313 -28 -16 -7 -45 -15 -65
-18 -31 -5 -40 -2 -48 14 -6 10 -8 19 -5 19 9 0 -22 54 -41 72 -28 24 -84 36
-121 26 -37 -10 -61 -41 -73 -93 -9 -40 -2 -43 53 -20 20 8 55 15 77 15 39 0
40 -1 40 -34 0 -47 -9 -66 -31 -66 -12 0 -16 5 -13 14 4 11 0 13 -16 9 -17 -4
-19 -8 -8 -15 10 -6 7 -14 -14 -33 -16 -13 -28 -29 -28 -35 0 -5 -4 -18 -9
-28 -29 -54 -57 -119 -57 -129 1 -7 16 -25 35 -41 l35 -29 -49 -16 c-27 -10
-58 -17 -70 -17 -13 0 -26 -11 -37 -32 -22 -44 -46 -116 -51 -153 -5 -33 -99
-289 -128 -346 -25 -49 -71 -87 -173 -143 -113 -62 -169 -107 -351 -288 -82
-81 -180 -170 -216 -197 -36 -27 -89 -80 -118 -118 -75 -97 -267 -292 -353
-356 -86 -65 -235 -214 -346 -347 -43 -53 -96 -113 -116 -134 -20 -22 -62 -71
-93 -110 -32 -39 -79 -93 -104 -120 -26 -27 -62 -72 -79 -100 -18 -28 -55 -68
-81 -89 -27 -21 -49 -44 -49 -52 0 -7 -28 -39 -62 -70 -79 -74 -178 -121 -278
-134 -174 -23 -350 -74 -505 -146 -69 -33 -229 -187 -232 -224 -3 -38 -64
-185 -83 -198 -14 -10 -20 -33 -26 -100 -15 -167 -3 -260 54 -428 75 -219 73
-333 -8 -435 -17 -21 -33 -53 -36 -72 -3 -18 -12 -62 -21 -97 -8 -36 -17 -74
-19 -84 -11 -60 -43 -128 -106 -229 -76 -122 -138 -242 -138 -269 0 -10 -10
-30 -23 -46 -61 -75 -139 -217 -169 -307 -26 -80 -120 -264 -151 -297 -36 -37
-79 -128 -117 -244 -31 -97 -103 -276 -161 -402 -45 -99 -58 -146 -54 -197 3
-26 7 -50 9 -55 5 -8 -39 -185 -54 -216 -5 -11 -11 -38 -14 -60 -4 -43 -27
-115 -56 -180 -10 -22 -33 -76 -51 -119 -29 -71 -87 -156 -144 -211 -39 -37
-73 -90 -89 -137 -20 -60 -74 -267 -86 -330 -22 -115 -32 -429 -18 -565 8 -81
45 -269 55 -286 9 -15 5 -149 -7 -187 -13 -43 -95 -167 -134 -200 -52 -45
-121 -114 -144 -145 -88 -120 -123 -173 -129 -193 -3 -15 3 -42 17 -72 40 -86
135 -115 236 -71 60 26 92 57 130 126 15 28 56 93 92 145 36 52 79 115 96 140
53 81 93 100 139 68 15 -11 80 -44 145 -73 167 -75 252 -122 289 -157 40 -38
73 -115 80 -182 3 -28 13 -68 24 -89 10 -20 21 -51 24 -69 3 -17 8 -35 12 -40
3 -5 7 -69 8 -141 3 -90 10 -157 24 -212 11 -44 22 -91 25 -105 7 -37 24 -112
52 -229 14 -57 27 -113 28 -125 4 -26 12 -77 32 -187 17 -94 14 -211 -7 -269
-23 -64 -78 -147 -116 -176 -54 -41 -63 -50 -74 -83 -13 -38 0 -63 57 -114 31
-28 45 -48 49 -75 4 -20 11 -50 16 -67 5 -16 9 -33 9 -37 1 -4 8 -30 16 -58
30 -102 13 -188 -47 -231 -19 -13 -29 -29 -29 -45 0 -30 -61 -128 -103 -166
-35 -32 -66 -40 -128 -34 l-46 4 -21 -47 c-31 -67 -104 -153 -207 -244 -75
-65 -97 -92 -133 -160 -59 -111 -106 -172 -196 -253 -88 -79 -107 -118 -84
-174 16 -39 15 -147 -2 -209 -10 -37 -53 -91 -72 -91 -21 0 -77 -71 -84 -105
-8 -45 13 -71 66 -80 38 -6 66 3 99 34 8 7 29 19 45 26 29 12 32 11 48 -13 11
-16 18 -46 18 -74 0 -48 11 -89 30 -111 25 -28 104 -155 122 -194 l19 -43 -83
-83 c-103 -103 -150 -154 -163 -181 -9 -18 -18 -21 -65 -18 -64 3 -80 -8 -127
-84 -29 -48 -30 -53 -16 -73 13 -19 23 -22 74 -20 72 3 108 23 151 83 17 25
43 49 57 54 47 18 56 22 101 48 25 15 74 42 110 60 l65 34 85 -84 c47 -46 122
-109 167 -139 112 -76 131 -98 258 -290 45 -69 140 -165 223 -227 80 -59 114
-90 169 -155 l41 -49 -19 -27 c-10 -15 -19 -31 -19 -36 0 -4 -17 -26 -38 -48
-33 -37 -71 -101 -86 -147 -9 -28 40 -78 76 -78 24 0 46 15 107 75 74 73 105
88 137 67 11 -7 47 -83 42 -88 -2 -1 -27 -13 -56 -26 -28 -13 -81 -52 -116
-86 -35 -34 -68 -62 -74 -62 -8 0 -22 -22 -22 -35 0 -5 48 10 90 28 58 25 108
29 145 11 38 -18 65 -13 110 22 44 34 81 45 161 49 73 4 154 22 154 35 0 9
-48 131 -60 152 -8 14 -2 19 38 32 125 40 194 52 362 61 52 3 105 7 117 9 89
18 444 29 480 15 50 -19 110 -102 100 -138 -3 -12 -2 -21 2 -21 4 0 51 25 105
56 55 32 118 63 140 70 23 7 57 19 76 27 37 15 136 17 160 2 73 -43 199 -149
238 -200 30 -38 166 -188 212 -234 19 -19 73 -63 120 -98 113 -85 250 -209
357 -323 48 -51 145 -137 178 -160 13 -8 61 -52 108 -96 90 -86 179 -153 262
-198 42 -23 93 -59 140 -99 6 -5 42 -26 80 -48 39 -22 99 -58 135 -80 35 -23
82 -48 104 -55 51 -19 289 -72 346 -78 133 -15 218 -72 288 -196 53 -93 62
-116 68 -178 7 -73 23 -101 87 -156 69 -59 122 -156 151 -277 5 -23 2 -28 -27
-39 -63 -24 -72 -27 -107 -43 -32 -14 -33 -16 -10 -17 14 0 34 -7 44 -15 12
-9 42 -15 74 -15 69 0 126 -17 159 -47 22 -21 25 -30 19 -66 -8 -58 -14 -85
-27 -124 -42 -127 1 -164 206 -178 62 -4 94 -11 101 -21 9 -11 5 -37 -17 -112
-40 -133 -41 -134 -44 -249 -3 -109 12 -207 39 -248 20 -30 77 -60 133 -70 49
-8 107 14 181 69 26 18 65 43 87 54 52 26 247 225 270 276 26 54 23 91 -14
168 -32 70 -46 83 -96 91 -84 15 -287 118 -317 161 -13 19 -9 63 7 76 8 7 12
16 9 21 -2 5 10 15 29 22 64 27 76 54 74 174 -1 124 8 138 90 142 144 5 157
29 90 164 -25 51 -66 121 -91 155 -45 60 -51 78 -15 46 9 -8 27 -15 40 -15 67
-2 104 -13 128 -39 21 -23 38 -29 90 -34 35 -4 85 -11 110 -16 25 -5 65 -11
89 -14 65 -8 132 -51 132 -85 0 -24 54 -112 86 -143 66 -62 211 -118 229 -88
12 19 53 11 61 -12 5 -13 7 -26 6 -31 -3 -11 51 -111 68 -124 19 -15 38 -5
109 61 76 70 133 96 223 102 40 3 100 9 133 14 293 46 476 27 635 -64 49 -28
198 -67 345 -92 233 -38 294 -70 341 -175 15 -33 37 -68 50 -78 35 -27 114
-26 192 3 61 22 233 76 245 76 2 0 14 -33 27 -73 12 -39 26 -77 31 -83 7 -9
15 -38 18 -66 1 -6 87 -59 159 -97 37 -20 112 -18 149 4 42 25 64 76 70 165
11 145 9 157 -29 214 -54 82 -31 170 46 181 23 3 52 3 66 0 47 -11 127 -6 162
8 20 8 60 32 89 52 70 48 113 66 174 72 55 5 124 -18 183 -63 48 -37 107 -121
131 -188 26 -69 76 -148 132 -205 32 -34 45 -41 78 -41 63 0 90 15 111 62 26
57 25 95 -6 175 -44 119 -34 216 28 280 34 36 107 63 166 63 50 0 88 27 130
93 29 45 55 70 117 111 314 207 382 248 410 251 17 1 46 10 64 20 18 9 35 14
38 11 6 -6 107 30 138 49 11 7 43 18 70 24 111 26 276 102 338 156 39 35 72
55 89 55 6 0 73 29 149 65 75 35 149 66 164 69 79 14 213 17 255 6 120 -33
187 6 195 113 2 29 4 55 4 59 1 4 19 17 40 28 22 11 54 33 73 51 40 37 121 93
208 143 106 62 173 104 200 127 20 17 102 74 181 124 38 24 107 79 156 125 30
28 69 56 87 64 18 8 37 19 40 25 4 6 15 11 24 11 34 0 159 69 262 145 109 80
168 115 194 115 9 0 49 -21 90 -46 65 -40 80 -46 111 -40 26 5 41 16 55 39 24
39 25 56 4 132 -18 71 -21 114 -7 123 5 4 24 28 41 54 18 25 38 52 45 60 7 7
35 44 61 81 33 46 60 72 84 83 20 8 86 63 146 122 60 59 128 125 150 147 52
51 117 123 137 153 53 75 568 605 648 664 78 59 123 109 211 240 73 108 117
190 183 340 14 32 39 77 55 100 28 41 122 228 122 244 0 8 15 40 116 252 35
72 64 134 64 136 0 2 22 42 50 89 27 46 56 108 64 138 7 30 58 144 113 254 55
110 114 234 133 275 18 41 43 99 56 128 13 29 24 57 24 63 0 6 29 84 64 173
38 95 71 197 80 248 9 48 26 109 37 135 23 52 46 135 55 192 3 20 10 41 15 46
18 18 93 9 144 -18 27 -15 55 -27 60 -27 6 0 33 -14 60 -31 38 -24 56 -30 82
-26 47 8 92 42 86 66 -6 23 -235 251 -252 251 -22 0 -81 55 -81 76 0 35 48
262 90 429 23 88 44 180 46 205 7 60 10 83 23 160 5 36 12 112 15 170 3 88 15
147 70 365 37 143 69 268 72 278 6 20 69 84 121 124 19 15 48 46 64 70 17 24
36 43 44 43 8 0 22 11 31 25 22 34 13 95 -22 146 -34 50 -42 117 -21 190 25
87 27 106 11 167 -18 69 -43 107 -124 192 -34 36 -78 88 -97 117 -20 29 -45
59 -57 66 -29 20 -102 169 -116 241 -7 33 -14 127 -15 210 -4 159 -23 305 -55
426 -7 25 -13 83 -15 130 -1 47 -12 130 -23 185 -24 114 -26 137 -18 294 5
127 -3 155 -65 222 -17 19 -38 43 -45 54 -15 24 -120 337 -127 380 -3 17 -10
43 -16 58 -6 15 -13 42 -16 60 -13 75 -61 225 -118 372 -9 22 -28 81 -43 130
-14 50 -43 124 -64 165 -21 41 -52 117 -69 167 -17 51 -44 119 -61 152 -16 33
-30 69 -30 79 0 19 -26 87 -82 217 -59 135 -91 201 -148 300 -31 55 -74 138
-95 185 -37 84 -83 176 -98 195 -59 79 -239 352 -242 369 -3 10 -11 29 -20 42
-8 13 -15 27 -15 32 0 5 -20 44 -45 88 -67 116 -141 272 -186 387 -87 227
-100 246 -349 497 -225 227 -275 268 -359 290 -36 10 -66 33 -160 125 -64 62
-132 126 -151 141 -19 16 -37 31 -40 34 -3 3 -41 30 -85 60 -44 29 -101 72
-127 94 -26 23 -64 50 -85 61 -78 40 -154 116 -159 160 0 5 -2 15 -2 22 -1 6
-12 15 -23 18 -40 13 -139 88 -227 172 -48 46 -148 129 -222 185 -74 55 -147
112 -162 126 -15 13 -35 25 -45 26 -37 2 -320 180 -455 285 -43 34 -84 61 -91
61 -7 0 -17 4 -22 9 -6 5 -35 16 -65 26 -97 30 -266 128 -355 205 -25 22 -51
40 -57 40 -27 0 -226 110 -276 153 -67 57 -134 93 -257 137 -107 38 -118 40
-170 41 -49 1 -119 15 -160 33 -63 28 -190 76 -201 76 -6 0 -29 14 -50 31 -52
41 -72 48 -162 55 -42 3 -89 7 -103 9 -62 11 -164 49 -222 83 -69 41 -64 39
-167 46 -41 3 -109 14 -150 26 -41 11 -111 27 -154 35 -43 8 -86 21 -95 28
-41 34 -98 47 -216 52 -66 2 -129 6 -140 9 -11 2 -42 9 -70 16 -27 6 -70 18
-95 26 -29 10 -96 17 -183 20 -77 2 -176 10 -220 18 -45 8 -141 15 -213 15
-78 0 -156 6 -195 15 -35 8 -100 16 -144 17 -74 3 -94 7 -150 30 -37 15 -130
37 -180 43 -27 3 -68 10 -90 16 -47 13 -627 20 -695 9z m-4060 -806 c0 -1 -10
-11 -22 -23 -23 -21 -61 -25 -130 -14 -37 6 -51 27 -25 38 12 5 177 5 177 -1z
m4348 -352 c71 -18 123 -59 163 -128 60 -107 111 -175 196 -264 71 -73 97 -92
152 -115 99 -41 166 -39 262 8 42 21 100 61 133 93 253 237 269 250 353 285
70 29 85 32 154 28 57 -3 84 -10 107 -27 38 -27 46 -49 44 -128 -1 -35 2 -63
6 -63 6 0 66 -46 167 -127 36 -29 149 -126 240 -208 260 -231 476 -396 598
-458 98 -49 265 -127 272 -127 3 0 30 -12 62 -26 162 -73 244 -88 378 -69 22
3 81 11 132 18 50 7 107 12 125 10 18 -2 78 -7 133 -12 56 -4 111 -14 124 -20
12 -7 57 -14 99 -16 72 -4 136 -10 172 -18 95 -22 118 -30 276 -103 160 -73
302 -137 327 -146 15 -5 27 -16 27 -24 0 -8 10 -18 23 -23 64 -25 278 -171
372 -256 22 -20 74 -54 115 -77 126 -69 193 -110 239 -148 24 -19 63 -49 87
-65 107 -75 350 -313 439 -430 33 -44 112 -131 176 -195 64 -63 160 -173 214
-245 54 -71 125 -161 157 -200 76 -90 113 -146 179 -270 29 -55 70 -120 90
-145 44 -53 235 -349 257 -400 9 -19 24 -47 34 -61 29 -43 31 -108 7 -191 -84
-291 -87 -309 -93 -472 -4 -102 3 -135 47 -226 63 -132 250 -281 457 -365 52
-21 110 -52 127 -68 39 -37 65 -109 69 -192 4 -87 10 -112 54 -237 37 -103 61
-189 75 -266 7 -39 51 -190 66 -227 7 -16 13 -32 14 -35 1 -3 9 -23 19 -45 16
-35 22 -58 41 -150 3 -11 14 -63 25 -115 46 -210 90 -425 96 -464 3 -22 7 -43
9 -46 5 -9 17 -143 20 -235 4 -96 14 -255 20 -302 2 -15 7 -82 10 -148 4 -66
12 -168 19 -226 12 -103 13 -343 2 -424 -8 -57 -15 -172 -21 -310 -3 -66 -7
-131 -8 -145 -5 -31 -18 -108 -23 -135 -3 -11 -7 -38 -9 -60 -3 -22 -7 -51
-10 -65 -2 -14 -7 -50 -10 -80 -6 -55 -20 -149 -31 -205 -3 -16 -27 -113 -54
-215 -59 -224 -97 -382 -104 -432 -3 -21 -11 -59 -17 -85 -6 -27 -13 -59 -15
-73 -18 -94 -122 -361 -188 -480 -8 -14 -24 -68 -37 -120 -13 -52 -34 -124
-47 -160 -13 -36 -25 -69 -26 -75 -1 -5 -11 -30 -22 -55 -12 -25 -24 -65 -28
-89 -7 -45 -123 -289 -397 -833 -88 -175 -158 -322 -155 -326 3 -5 -13 -31
-36 -58 -64 -78 -92 -121 -171 -270 -78 -147 -130 -228 -188 -291 -19 -21 -78
-103 -132 -183 -53 -80 -113 -163 -133 -185 -19 -22 -60 -71 -89 -110 -30 -38
-78 -95 -107 -125 -30 -30 -69 -77 -88 -105 -19 -27 -39 -55 -45 -61 -5 -6
-28 -33 -49 -60 -22 -27 -63 -69 -93 -94 -29 -25 -53 -51 -53 -58 0 -18 -49
-63 -135 -127 -38 -27 -95 -75 -128 -105 -32 -30 -67 -59 -76 -64 -9 -5 -32
-23 -51 -41 -19 -18 -78 -57 -130 -88 -89 -52 -246 -169 -369 -275 -64 -55
-142 -112 -191 -139 -19 -10 -189 -122 -378 -248 -393 -264 -398 -267 -552
-348 -63 -33 -141 -75 -173 -93 -32 -19 -81 -41 -110 -50 -114 -36 -134 -43
-183 -68 -29 -14 -58 -26 -65 -26 -7 0 -20 -6 -28 -14 -30 -26 -116 -69 -164
-82 -28 -7 -78 -11 -120 -8 -187 12 -198 11 -362 -29 -88 -21 -196 -48 -240
-58 -44 -11 -147 -44 -230 -73 -82 -30 -165 -59 -184 -65 -19 -6 -103 -11
-196 -11 -155 0 -162 1 -182 23 -32 34 -46 92 -49 204 -3 111 -9 127 -65 169
-86 64 -244 -16 -223 -113 3 -16 7 -53 9 -84 l3 -57 -40 -6 c-25 -4 -49 -17
-66 -35 -37 -39 -62 -50 -105 -46 -35 3 -107 39 -107 54 0 4 -29 39 -63 78
-35 39 -71 81 -80 93 -11 16 -26 23 -53 24 -37 1 -38 0 -46 -44 -15 -87 -69
-119 -117 -71 -12 12 -29 21 -38 21 -9 0 -25 8 -35 17 -18 17 -22 16 -66 -7
-34 -19 -49 -34 -57 -60 -11 -32 -50 -65 -65 -55 -4 2 -7 21 -8 42 -4 81 -23
128 -59 146 -15 7 -32 13 -38 12 -36 -3 -69 -20 -102 -51 -64 -61 -77 -67
-136 -60 -28 3 -77 13 -107 22 -30 9 -66 18 -80 21 -14 2 -60 13 -104 24 -95
23 -120 24 -177 4 -45 -16 -79 -13 -127 10 -60 29 -92 23 -144 -29 -54 -56
-102 -69 -173 -49 -84 23 -158 41 -195 47 -19 3 -57 10 -85 16 -116 25 -139
24 -171 -5 -41 -39 -64 -45 -162 -45 -103 0 -154 12 -179 43 -10 12 -31 29
-48 37 -16 8 -33 16 -36 18 -4 1 -16 -22 -29 -52 -32 -80 -40 -84 -144 -82
-73 2 -92 6 -100 20 -32 52 -48 57 -125 35 -35 -10 -54 -10 -90 0 -25 7 -73
15 -106 17 -38 3 -145 33 -299 85 -240 80 -302 105 -406 159 -30 15 -120 57
-200 93 -365 163 -500 236 -500 271 0 7 -23 18 -51 24 -75 18 -163 63 -254
132 -44 33 -113 81 -154 107 -98 64 -202 146 -281 223 -89 86 -294 266 -415
364 -94 76 -310 226 -326 226 -16 0 -125 70 -151 97 -65 68 -76 79 -94 93
-138 108 -352 291 -410 352 -63 64 -174 204 -174 218 0 4 -10 18 -22 32 -23
24 -100 116 -128 152 -8 11 -36 42 -63 70 -48 52 -96 118 -138 193 -13 23 -42
60 -63 83 -21 23 -53 63 -70 89 -18 26 -44 63 -58 82 -14 19 -36 52 -48 74
-61 110 -110 189 -175 285 -40 58 -107 162 -149 232 -88 147 -266 490 -266
513 0 24 -50 129 -114 240 -38 65 -73 146 -101 230 -24 72 -55 159 -68 195
-14 36 -46 135 -71 220 -25 85 -50 169 -55 185 -6 17 -26 89 -46 160 -46 166
-56 195 -76 225 -9 14 -19 45 -21 70 -3 25 -12 90 -21 145 -9 55 -19 118 -22
140 -12 97 -35 204 -54 259 -29 82 -30 86 -46 436 -3 58 -7 116 -9 130 -11 66
-19 191 -22 360 -1 102 -5 196 -8 210 -22 96 -29 536 -12 715 4 50 10 108 12
130 2 22 5 155 8 295 3 140 7 266 10 280 3 14 8 39 11 55 4 17 19 64 35 105
16 41 38 114 49 162 18 77 31 113 72 203 15 32 120 296 138 346 9 25 35 72 59
105 157 215 328 487 421 669 133 262 271 394 507 488 49 19 118 49 154 65 36
16 76 33 90 37 118 35 336 204 425 329 11 16 25 33 31 40 6 6 29 43 52 82 54
93 101 235 112 338 5 44 14 113 20 151 12 73 16 651 5 735 -15 113 -30 196
-56 307 -10 46 -19 98 -19 116 0 79 35 137 105 174 46 24 214 23 349 -3 61
-12 134 -25 161 -29 28 -4 61 -9 75 -12 49 -9 666 -9 705 -1 22 5 78 26 125
47 47 21 99 42 115 46 17 5 35 10 40 12 41 15 162 29 220 27 84 -4 90 -5 183
-38 89 -32 116 -29 202 27 l64 42 121 1 c145 1 189 -11 277 -79 35 -27 97 -70
139 -97 89 -57 97 -67 177 -225 64 -124 120 -194 194 -241 29 -19 114 -80 135
-98 1 -1 -475 -1 -1058 -1 -697 0 -1060 -3 -1062 -10 -2 -9 -1 -11223 2
-11235 1 -3 701 -5 1556 -5 l1555 0 1 35 c0 19 0 2137 1 4707 l0 4671 682 -3
c374 -2 695 -6 711 -8 17 -3 55 -8 85 -12 134 -15 326 -62 457 -111 352 -132
626 -380 798 -723 48 -97 121 -283 140 -361 2 -8 11 -44 20 -80 23 -93 26
-112 49 -255 8 -49 17 -126 21 -170 3 -44 8 -96 11 -115 7 -48 7 -494 0 -550
-3 -25 -8 -81 -11 -125 -3 -44 -8 -87 -10 -95 -2 -8 -6 -42 -10 -75 -4 -33
-13 -91 -21 -130 -8 -38 -17 -83 -19 -100 -6 -47 -72 -268 -105 -350 -79 -199
-181 -364 -304 -489 -128 -132 -212 -190 -351 -244 -153 -60 -206 -67 -472
-67 -207 0 -213 0 -214 -20 0 -11 -2 -33 -3 -50 -2 -16 -6 -70 -10 -119 -4
-49 -9 -107 -11 -130 -4 -50 -13 -147 -20 -241 -4 -38 -8 -92 -11 -120 -2 -27
-7 -79 -9 -115 -2 -36 -7 -87 -9 -115 -3 -27 -8 -84 -11 -125 -3 -41 -8 -95
-10 -120 -2 -25 -7 -79 -10 -120 -3 -41 -8 -91 -10 -110 -2 -19 -7 -78 -11
-130 -3 -52 -8 -102 -9 -112 -5 -22 20 -29 175 -45 92 -10 611 -10 735 0 149
12 452 52 535 72 14 3 41 8 60 11 19 3 43 7 52 10 9 3 26 7 37 9 12 3 30 7 42
10 11 2 29 7 39 10 10 3 28 8 39 10 50 10 248 69 338 101 54 20 112 40 128 46
17 5 44 16 62 24 17 8 34 14 37 14 3 0 31 12 63 26 32 14 74 32 93 41 329 145
717 396 990 641 292 263 507 527 725 893 39 66 176 345 217 444 68 162 139
381 182 556 30 125 39 166 51 239 1 8 5 31 8 50 6 32 12 73 22 140 2 14 7 61
10 105 4 44 9 83 11 86 5 9 17 300 17 419 -1 596 -116 1120 -353 1600 -167
337 -401 644 -700 915 -101 91 -312 252 -409 312 -215 132 -312 184 -536 288
-389 181 -1060 367 -1515 419 -25 3 -81 10 -125 16 -44 6 -100 13 -125 15 -25
2 -67 6 -95 9 -27 3 -84 8 -125 11 -41 4 -97 8 -125 10 -162 14 -590 19 -1537
19 -588 1 -1068 3 -1068 7 0 3 29 16 65 28 49 18 69 30 80 51 18 34 57 162
102 335 19 72 36 137 38 145 45 168 76 291 79 316 4 29 1 32 -26 36 -37 6 -73
-22 -117 -90 -29 -46 -51 -128 -66 -249 -2 -24 -11 -76 -19 -115 -8 -40 -17
-98 -20 -128 -3 -30 -10 -71 -15 -90 -56 -205 -67 -226 -109 -207 -15 6 -38
19 -51 29 -13 10 -32 18 -42 18 -11 0 -36 15 -56 33 -21 18 -55 44 -75 57 -39
26 -58 57 -64 105 -6 47 -14 66 -49 120 -33 50 -79 185 -90 260 -4 28 0 50 14
75 15 30 25 36 63 41 24 4 64 16 89 27 72 33 94 69 81 132 -15 67 18 185 87
311 5 8 21 47 36 85 94 235 219 417 295 429 85 13 112 32 226 156 97 105 150
190 193 307 52 141 124 293 150 317 19 17 22 16 91 -31 96 -66 111 -74 139
-74 24 0 101 38 101 51 0 8 77 88 135 139 57 51 117 122 188 224 139 201 219
252 427 271 36 3 99 11 140 18 90 16 207 15 278 -2z"/>
<path d="M6638 20408 c5 -5 16 -8 23 -6 8 3 3 7 -10 11 -17 4 -21 3 -13 -5z"/>
</g>
</svg>
